<svg width="54" height="54" viewBox="0 0 54 54" fill="none" xmlns="http://www.w3.org/2000/svg">
<g id="book-open-svgrepo-com 1" clip-path="url(#clip0_1_18)">
<g id="Vector">
<mask id="path-1-inside-1_1_18" fill="white">
<path d="M3.72938 0.0816109L25.6719 6.02533C26.2295 6.17471 27.4412 6.17305 27.9956 6.01703L49.3737 0.0932294C51.2808 -0.432925 53.1298 0.943044 53.1298 2.90824V43.2678C53.1298 44.9326 51.8684 46.5243 50.2617 46.9724L28.8836 52.8979C28.3109 53.0572 27.5756 53.1452 26.8121 53.1452C26.2893 53.1452 25.5158 53.1054 24.8038 52.9095L2.86131 46.9658C1.24965 46.5309 -0.016768 44.9409 -0.016768 43.2694V2.90824C-0.0184278 0.944704 1.82892 -0.434585 3.72938 0.0816109ZM28.2163 49.6348L49.4268 43.7707C49.5862 43.7275 49.8119 43.4338 49.8119 43.2678V3.43107L28.8852 9.21712C28.6827 9.27355 28.4553 9.31836 28.218 9.35488V49.6364L28.2163 49.6348ZM3.30281 43.2678C3.30281 43.4321 3.5717 43.7159 3.73104 43.7607L24.8984 49.4937V9.24865C24.8685 9.24035 24.8353 9.23703 24.8054 9.22873L3.30447 3.41282L3.30281 43.2678ZM19.8144 18.9999C19.6651 18.9999 19.5124 18.9817 19.363 18.9385L7.74774 15.6687C6.86473 15.4198 6.35019 14.5036 6.59916 13.6205C6.84813 12.7375 7.76932 12.2263 8.64735 12.472L20.2626 15.7418C21.1456 15.9907 21.6601 16.9069 21.4112 17.79C21.2053 18.5219 20.5398 18.9999 19.8144 18.9999ZM19.8128 28.9587C19.6634 28.9587 19.5107 28.9388 19.3613 28.8973L7.74608 25.6275C6.86307 25.3785 6.34854 24.4623 6.5975 23.5793C6.84647 22.6963 7.76766 22.1851 8.64569 22.4291L20.2609 25.6989C21.1439 25.9478 21.6585 26.864 21.4095 27.7454C21.2037 28.479 20.5381 28.957 19.8128 28.957V28.9587ZM19.8128 38.9175C19.6634 38.9175 19.5107 38.8975 19.3613 38.8561L7.74608 35.5863C6.86307 35.3356 6.34854 34.4211 6.5975 33.5381C6.84647 32.6551 7.76766 32.1438 8.64569 32.3895L20.2609 35.6593C21.1439 35.9099 21.6585 36.8245 21.4095 37.7075C21.2037 38.4394 20.5381 38.9175 19.8128 38.9175ZM32.6446 15.7418L44.2599 12.472C45.1379 12.228 46.0591 12.7392 46.3081 13.6205C46.557 14.5019 46.0425 15.4181 45.1595 15.6687L33.5443 18.9385C33.3949 18.98 33.2438 18.9999 33.0945 18.9999C32.3691 18.9999 31.7035 18.5219 31.4977 17.79C31.2504 16.9086 31.7633 15.9924 32.648 15.7418H32.6446ZM32.6446 25.7005L44.2599 22.4307C45.1379 22.1851 46.0591 22.698 46.3081 23.581C46.557 24.464 46.0425 25.3785 45.1595 25.6292L33.5443 28.8989C33.3949 28.9421 33.2438 28.9604 33.0945 28.9604C32.3691 28.9604 31.7035 28.4823 31.4977 27.7487C31.2504 26.8674 31.7633 25.9512 32.648 25.7005H32.6446ZM32.6446 35.6593L44.2599 32.3895C45.1379 32.1438 46.0591 32.6567 46.3081 33.5381C46.557 34.4194 46.0425 35.3356 45.1595 35.5863L33.5443 38.8561C33.3949 38.8992 33.2438 38.9175 33.0945 38.9175C32.3691 38.9175 31.7035 38.4394 31.4977 37.7058C31.2504 36.8228 31.7633 35.9083 32.648 35.6576L32.6446 35.6593Z"/>
</mask>
<path d="M3.72938 0.0816109L25.6719 6.02533C26.2295 6.17471 27.4412 6.17305 27.9956 6.01703L49.3737 0.0932294C51.2808 -0.432925 53.1298 0.943044 53.1298 2.90824V43.2678C53.1298 44.9326 51.8684 46.5243 50.2617 46.9724L28.8836 52.8979C28.3109 53.0572 27.5756 53.1452 26.8121 53.1452C26.2893 53.1452 25.5158 53.1054 24.8038 52.9095L2.86131 46.9658C1.24965 46.5309 -0.016768 44.9409 -0.016768 43.2694V2.90824C-0.0184278 0.944704 1.82892 -0.434585 3.72938 0.0816109ZM28.2163 49.6348L49.4268 43.7707C49.5862 43.7275 49.8119 43.4338 49.8119 43.2678V3.43107L28.8852 9.21712C28.6827 9.27355 28.4553 9.31836 28.218 9.35488V49.6364L28.2163 49.6348ZM3.30281 43.2678C3.30281 43.4321 3.5717 43.7159 3.73104 43.7607L24.8984 49.4937V9.24865C24.8685 9.24035 24.8353 9.23703 24.8054 9.22873L3.30447 3.41282L3.30281 43.2678ZM19.8144 18.9999C19.6651 18.9999 19.5124 18.9817 19.363 18.9385L7.74774 15.6687C6.86473 15.4198 6.35019 14.5036 6.59916 13.6205C6.84813 12.7375 7.76932 12.2263 8.64735 12.472L20.2626 15.7418C21.1456 15.9907 21.6601 16.9069 21.4112 17.79C21.2053 18.5219 20.5398 18.9999 19.8144 18.9999ZM19.8128 28.9587C19.6634 28.9587 19.5107 28.9388 19.3613 28.8973L7.74608 25.6275C6.86307 25.3785 6.34854 24.4623 6.5975 23.5793C6.84647 22.6963 7.76766 22.1851 8.64569 22.4291L20.2609 25.6989C21.1439 25.9478 21.6585 26.864 21.4095 27.7454C21.2037 28.479 20.5381 28.957 19.8128 28.957V28.9587ZM19.8128 38.9175C19.6634 38.9175 19.5107 38.8975 19.3613 38.8561L7.74608 35.5863C6.86307 35.3356 6.34854 34.4211 6.5975 33.5381C6.84647 32.6551 7.76766 32.1438 8.64569 32.3895L20.2609 35.6593C21.1439 35.9099 21.6585 36.8245 21.4095 37.7075C21.2037 38.4394 20.5381 38.9175 19.8128 38.9175ZM32.6446 15.7418L44.2599 12.472C45.1379 12.228 46.0591 12.7392 46.3081 13.6205C46.557 14.5019 46.0425 15.4181 45.1595 15.6687L33.5443 18.9385C33.3949 18.98 33.2438 18.9999 33.0945 18.9999C32.3691 18.9999 31.7035 18.5219 31.4977 17.79C31.2504 16.9086 31.7633 15.9924 32.648 15.7418H32.6446ZM32.6446 25.7005L44.2599 22.4307C45.1379 22.1851 46.0591 22.698 46.3081 23.581C46.557 24.464 46.0425 25.3785 45.1595 25.6292L33.5443 28.8989C33.3949 28.9421 33.2438 28.9604 33.0945 28.9604C32.3691 28.9604 31.7035 28.4823 31.4977 27.7487C31.2504 26.8674 31.7633 25.9512 32.648 25.7005H32.6446ZM32.6446 35.6593L44.2599 32.3895C45.1379 32.1438 46.0591 32.6567 46.3081 33.5381C46.557 34.4194 46.0425 35.3356 45.1595 35.5863L33.5443 38.8561C33.3949 38.8992 33.2438 38.9175 33.0945 38.9175C32.3691 38.9175 31.7035 38.4394 31.4977 37.7058C31.2504 36.8228 31.7633 35.9083 32.648 35.6576L32.6446 35.6593Z" fill="black"/>
<path d="M3.72938 0.0816109L1.89919 6.83812L1.89455 6.83686L3.72938 0.0816109ZM25.6719 6.02533L23.8607 12.787L23.8512 12.7844L23.8417 12.7818L25.6719 6.02533ZM27.9956 6.01703L26.0992 -0.721194L26.1127 -0.725013L26.1263 -0.728776L27.9956 6.01703ZM49.3737 0.0932295L47.5045 -6.65258L47.512 -6.65467L49.3737 0.0932295ZM50.2617 46.9724L52.1424 53.7151L52.1314 53.7181L50.2617 46.9724ZM28.8836 52.8979L27.007 46.1541L27.0138 46.1522L28.8836 52.8979ZM24.8038 52.9095L26.634 46.153L26.6471 46.1566L26.6602 46.1602L24.8038 52.9095ZM2.86131 46.9658L4.68487 40.2075L4.6915 40.2093L2.86131 46.9658ZM-0.0167694 2.90824L6.98323 2.90232V2.90824H-0.0167694ZM28.2163 49.6348L23.2642 54.5821L14.7777 46.0875L26.351 42.8879L28.2163 49.6348ZM49.4268 43.7707L47.5615 37.0238L47.5792 37.0189L47.5969 37.0141L49.4268 43.7707ZM49.8119 3.43107L47.9464 -3.31578L56.8119 -5.767V3.43107H49.8119ZM28.8852 9.21712L27.006 2.47408L27.0129 2.47216L27.0198 2.47026L28.8852 9.21712ZM28.218 9.35488H21.218V3.34945L27.1536 2.43628L28.218 9.35488ZM28.218 49.6364H35.218V66.5473L23.2659 54.5838L28.218 49.6364ZM3.30281 43.2678H-3.69719V43.2675L3.30281 43.2678ZM3.73104 43.7607L1.9011 50.5173L1.86842 50.5085L1.83582 50.4993L3.73104 43.7607ZM24.8984 49.4937H31.8984V58.6417L23.0684 56.2502L24.8984 49.4937ZM24.8984 9.24865L26.7719 2.50403L31.8984 3.92805V9.24865H24.8984ZM24.8054 9.22873L26.6332 2.47157L26.6561 2.47776L26.6789 2.48411L24.8054 9.22873ZM3.30447 3.41282L-3.69553 3.41253L-3.69515 -5.73212L5.13226 -3.34434L3.30447 3.41282ZM19.363 18.9385L21.2598 12.2004L21.2828 12.2069L21.3058 12.2135L19.363 18.9385ZM7.74774 15.6687L5.8509 22.4068L5.84812 22.4061L7.74774 15.6687ZM8.64735 12.472L10.5333 5.73082L10.5442 5.73387L8.64735 12.472ZM20.2626 15.7418L22.1594 9.00366L22.1622 9.00445L20.2626 15.7418ZM21.4112 17.79L14.6725 15.8952L14.6738 15.8903L21.4112 17.79ZM19.8128 28.9587H26.8128V35.9587H19.8128V28.9587ZM19.3613 28.8973L17.4878 35.6419L17.4761 35.6387L17.4645 35.6354L19.3613 28.8973ZM7.74608 25.6275L5.84925 32.3656L5.84646 32.3648L7.74608 25.6275ZM8.64569 22.4291L10.5199 15.6846L10.5312 15.6878L10.5425 15.691L8.64569 22.4291ZM20.2609 25.6989L22.1578 18.9608L22.1605 18.9615L20.2609 25.6989ZM21.4095 27.7454L14.6697 25.8546L14.6731 25.8425L21.4095 27.7454ZM19.8128 28.957H12.8128V21.957H19.8128V28.957ZM19.3613 38.8561L17.4878 45.6007L17.4761 45.5974L17.4645 45.5942L19.3613 38.8561ZM7.74608 35.5863L5.84925 42.3244L5.84199 42.3223L5.83474 42.3203L7.74608 35.5863ZM8.64569 32.3895L10.5317 25.6483L10.5425 25.6514L8.64569 32.3895ZM20.2609 35.6593L22.1578 28.9212L22.165 28.9232L22.1723 28.9253L20.2609 35.6593ZM21.4095 37.7075L14.6708 35.8127L14.6722 35.8079L21.4095 37.7075ZM32.6446 15.7418V22.7418L30.7478 9.00366L32.6446 15.7418ZM44.2599 12.472L42.363 5.73387L42.3744 5.73068L42.3857 5.72753L44.2599 12.472ZM45.1595 15.6687L47.0708 22.4027L47.0636 22.4048L47.0563 22.4068L45.1595 15.6687ZM33.5443 18.9385L35.4411 25.6766L35.4294 25.6799L35.4178 25.6832L33.5443 18.9385ZM31.4977 17.79L24.759 19.6847L24.758 19.6811L31.4977 17.79ZM32.648 15.7418V8.74177L34.556 22.4767L32.648 15.7418ZM32.6446 25.7005V32.7005L30.7478 18.9624L32.6446 25.7005ZM44.2599 22.4307L42.363 15.6926L42.3739 15.6896L44.2599 22.4307ZM45.1595 25.6292L47.0708 32.3632L47.0636 32.3652L47.0563 32.3673L45.1595 25.6292ZM33.5443 28.8989L31.6015 22.1739L31.6244 22.1673L31.6474 22.1608L33.5443 28.8989ZM31.4977 27.7487L38.2374 25.8575L38.2375 25.8579L31.4977 27.7487ZM32.648 25.7005V18.7005L34.556 32.4355L32.648 25.7005ZM32.6446 35.6593L34.5415 42.3974L29.5153 29.3977L32.6446 35.6593ZM44.2599 32.3895L42.363 25.6514L42.3739 25.6483L44.2599 32.3895ZM45.1595 35.5863L47.0708 42.3203L47.0636 42.3223L47.0563 42.3244L45.1595 35.5863ZM33.5443 38.8561L31.6015 32.1311L31.6244 32.1244L31.6474 32.118L33.5443 38.8561ZM31.4977 37.7058L24.7579 39.5966L24.7571 39.5937L31.4977 37.7058ZM32.648 35.6576L30.7399 28.9227L35.7773 41.9192L32.648 35.6576ZM5.55957 -6.6749L27.502 -0.731177L23.8417 12.7818L1.89919 6.83812L5.55957 -6.6749ZM27.483 -0.736304C27.2604 -0.795942 27.0933 -0.825351 27.0098 -0.838652C26.9186 -0.853172 26.8575 -0.859372 26.8318 -0.861722C26.7853 -0.865988 26.7844 -0.864176 26.8152 -0.864263C26.8465 -0.864352 26.8421 -0.866185 26.7896 -0.861007C26.761 -0.85818 26.695 -0.850987 26.5979 -0.834649C26.5088 -0.819658 26.3326 -0.786881 26.0992 -0.721194L29.892 12.7553C28.6931 13.0927 27.4966 13.1339 26.8547 13.1357C26.2028 13.1375 25.0325 13.1008 23.8607 12.787L27.483 -0.736304ZM26.1263 -0.728776L47.5045 -6.65258L51.2429 6.83904L29.8648 12.7628L26.1263 -0.728776ZM47.512 -6.65467C53.7461 -8.37459 60.1298 -3.81577 60.1298 2.90824H46.1298C46.1298 5.70186 48.8156 7.50874 51.2354 6.84113L47.512 -6.65467ZM60.1298 2.90824V43.2678H46.1298V2.90824H60.1298ZM60.1298 43.2678C60.1298 48.2235 56.629 52.4636 52.1424 53.7151L48.381 40.2298C47.601 40.4474 47.0889 40.8734 46.7779 41.2722C46.4657 41.6726 46.1298 42.341 46.1298 43.2678H60.1298ZM52.1314 53.7181L30.7533 59.6436L27.0138 46.1522L48.392 40.2268L52.1314 53.7181ZM30.7601 59.6417C29.4333 60.0109 28.0418 60.1452 26.8121 60.1452V46.1452C26.9311 46.1452 27.0281 46.138 27.0891 46.1307C27.1178 46.1273 27.1279 46.1251 27.1195 46.1267C27.1121 46.1281 27.0734 46.1356 27.007 46.1541L30.7601 59.6417ZM26.8121 60.1452C26.0401 60.1452 24.544 60.098 22.9473 59.6589L26.6602 46.1602C26.5877 46.1402 26.5449 46.1327 26.5376 46.1314C26.5291 46.13 26.5392 46.132 26.5689 46.1349C26.5978 46.1378 26.6354 46.1405 26.6802 46.1425C26.7247 46.1444 26.7695 46.1452 26.8121 46.1452V60.1452ZM22.9736 59.666L1.03112 53.7223L4.6915 40.2093L26.634 46.153L22.9736 59.666ZM1.03775 53.7241C-3.49943 52.4999 -7.01677 48.2361 -7.01677 43.2694H6.98323C6.98323 42.3448 6.64755 41.6717 6.32675 41.2625C6.00765 40.8554 5.48151 40.4225 4.68487 40.2075L1.03775 53.7241ZM-7.01677 43.2694V2.90824H6.98323V43.2694H-7.01677ZM-7.01677 2.91416C-7.02244 -3.79434 -0.663776 -8.36526 5.56421 -6.67364L1.89455 6.83686C4.32161 7.49609 6.98558 5.68375 6.98323 2.90232L-7.01677 2.91416ZM26.351 42.8879L47.5615 37.0238L51.2921 50.5176L30.0816 56.3816L26.351 42.8879ZM47.5969 37.0141C46.2674 37.3742 45.4104 38.0393 45.0805 38.3134C44.6613 38.6617 44.3506 39.0106 44.1239 39.3063C43.8973 39.6019 43.64 39.9938 43.4117 40.4915C43.2312 40.8851 42.8119 41.8881 42.8119 43.2678H56.8119C56.8119 44.7305 56.3644 45.8325 56.1366 46.3291C55.8609 46.93 55.5373 47.4292 55.2344 47.8243C54.9313 48.2196 54.5342 48.6604 54.0279 49.0811C53.6109 49.4276 52.6659 50.1456 51.2567 50.5273L47.5969 37.0141ZM42.8119 43.2678V3.43107H56.8119V43.2678H42.8119ZM51.6773 10.1779L30.7507 15.964L27.0198 2.47026L47.9464 -3.31578L51.6773 10.1779ZM30.7644 15.9602C30.2048 16.1161 29.6846 16.2116 29.2824 16.2735L27.1536 2.43628C27.1811 2.43205 27.1835 2.43106 27.1649 2.43484C27.1478 2.43833 27.0919 2.45013 27.006 2.47408L30.7644 15.9602ZM35.218 9.35488V49.6364H21.218V9.35488H35.218ZM23.2659 54.5838L23.2642 54.5821L33.1684 44.6874L33.1701 44.689L23.2659 54.5838ZM10.3028 43.2678C10.3028 41.5974 9.69345 40.4214 9.48243 40.0373C9.19594 39.5158 8.89251 39.1351 8.66687 38.8837C8.43294 38.623 8.14197 38.345 7.77927 38.0747C7.50997 37.8741 6.76214 37.3417 5.62626 37.0222L1.83582 50.4993C0.62027 50.1574 -0.220924 49.5727 -0.585457 49.3011C-1.04339 48.9599 -1.43145 48.5922 -1.75252 48.2344C-2.0653 47.8859 -2.44591 47.4007 -2.78779 46.7784C-3.05422 46.2934 -3.69719 45.0203 -3.69719 43.2678H10.3028ZM5.56098 37.0042L26.7283 42.7371L23.0684 56.2502L1.9011 50.5173L5.56098 37.0042ZM17.8984 49.4937V9.24865H31.8984V49.4937H17.8984ZM23.0249 15.9933C23.1235 16.0207 23.2104 16.0424 23.2818 16.0592C23.3531 16.076 23.4136 16.089 23.4587 16.0983C23.5035 16.1076 23.539 16.1144 23.5586 16.1181C23.5762 16.1215 23.5908 16.1242 23.5838 16.1229C23.5829 16.1227 23.5605 16.1186 23.535 16.1138C23.5075 16.1085 23.4642 16.1002 23.4116 16.0893C23.3587 16.0784 23.2905 16.0637 23.2116 16.0451C23.1325 16.0265 23.038 16.0028 22.9319 15.9734L26.6789 2.48411C26.5803 2.45671 26.4934 2.43499 26.422 2.41817C26.3507 2.40137 26.2903 2.38838 26.2451 2.37905C26.2003 2.36979 26.1648 2.36296 26.1452 2.35924C26.1276 2.35589 26.113 2.35323 26.1201 2.35452C26.1209 2.35468 26.1434 2.3588 26.1688 2.36363C26.1963 2.36884 26.2396 2.3772 26.2922 2.38807C26.3451 2.39901 26.4133 2.41369 26.4923 2.43229C26.5713 2.45092 26.6658 2.47456 26.7719 2.50403L23.0249 15.9933ZM22.9777 15.9859L1.47669 10.17L5.13226 -3.34434L26.6332 2.47157L22.9777 15.9859ZM10.3045 3.41311L10.3028 43.2681L-3.69719 43.2675L-3.69553 3.41253L10.3045 3.41311ZM19.8144 25.9999C19.1004 25.9999 18.2842 25.9131 17.4202 25.6635L21.3058 12.2135C20.7405 12.0502 20.2297 11.9999 19.8144 11.9999V25.9999ZM17.4661 25.6766L5.8509 22.4068L9.64458 8.93063L21.2598 12.2004L17.4661 25.6766ZM5.84812 22.4061C1.25302 21.1104 -1.43874 16.3337 -0.138153 11.7209L13.3365 15.5202C14.1391 12.6734 12.4764 9.72909 9.64736 8.93142L5.84812 22.4061ZM-0.138153 11.7209C1.16518 7.09845 5.96153 4.45176 10.5333 5.73083L6.76136 19.2131C9.5771 20.0009 12.5311 18.3766 13.3365 15.5202L-0.138153 11.7209ZM10.5442 5.73387L22.1594 9.00366L18.3657 22.4799L6.75051 19.2101L10.5442 5.73387ZM22.1622 9.00445C26.7573 10.3001 29.4491 15.0768 28.1485 19.6896L14.6738 15.8903C13.8712 18.7371 15.5339 21.6814 18.363 22.4791L22.1622 9.00445ZM28.1498 19.6847C27.072 23.518 23.5899 25.9999 19.8144 25.9999V11.9999C17.4896 11.9999 15.3387 13.5259 14.6725 15.8952L28.1498 19.6847ZM19.8128 35.9587C19.0459 35.9587 18.2622 35.857 17.4878 35.6419L21.2348 22.1527C20.7592 22.0205 20.2809 21.9587 19.8128 21.9587V35.9587ZM17.4645 35.6354L5.84925 32.3656L9.64292 18.8894L21.2582 22.1592L17.4645 35.6354ZM5.84646 32.3648C1.25136 31.0692 -1.4404 26.2924 -0.139812 21.6797L13.3348 25.4789C14.1375 22.6322 12.4748 19.6879 9.6457 18.8902L5.84646 32.3648ZM-0.139812 21.6797C1.16382 17.0561 5.95657 14.4166 10.5199 15.6846L6.77152 29.1735C9.57874 29.9536 12.5291 28.3365 13.3348 25.4789L-0.139812 21.6797ZM10.5425 15.691L22.1578 18.9608L18.3641 32.437L6.74885 29.1672L10.5425 15.691ZM22.1605 18.9615C26.7508 20.2558 29.4504 25.0303 28.1459 29.6483L14.6731 25.8425C13.8665 28.6978 15.5371 31.6399 18.3613 32.4362L22.1605 18.9615ZM28.1493 29.6362C27.0734 33.4711 23.5919 35.957 19.8128 35.957V21.957C17.4843 21.957 15.3339 23.4869 14.6697 25.8546L28.1493 29.6362ZM26.8128 28.957V28.9587H12.8128V28.957H26.8128ZM19.8128 45.9175C19.0459 45.9175 18.2622 45.8158 17.4878 45.6007L21.2348 32.1114C20.7592 31.9793 20.2809 31.9175 19.8128 31.9175V45.9175ZM17.4645 45.5942L5.84925 42.3244L9.64292 28.8482L21.2582 32.118L17.4645 45.5942ZM5.83474 42.3203C1.26011 41.0218 -1.44307 36.2607 -0.139812 31.6385L13.3348 35.4377C14.1401 32.5815 12.466 29.6494 9.65742 28.8523L5.83474 42.3203ZM-0.139812 31.6385C1.16352 27.016 5.95988 24.3693 10.5317 25.6483L6.7597 39.1306C9.57543 39.9184 12.5294 38.2942 13.3348 35.4377L-0.139812 31.6385ZM10.5425 25.6514L22.1578 28.9212L18.3641 42.3974L6.74885 39.1276L10.5425 25.6514ZM22.1723 28.9253C26.7469 30.2237 29.4501 34.9849 28.1468 39.6071L14.6722 35.8079C13.8669 38.664 15.541 41.5961 18.3496 42.3933L22.1723 28.9253ZM28.1482 39.6022C27.0704 43.4355 23.5883 45.9175 19.8128 45.9175V31.9175C17.4879 31.9175 15.337 33.4434 14.6708 35.8127L28.1482 39.6022ZM30.7478 9.00366L42.363 5.73387L46.1567 19.2101L34.5415 22.4799L30.7478 9.00366ZM42.3857 5.72753C46.9454 4.46047 51.7387 7.09525 53.0445 11.7176L39.5717 15.5235C40.3795 18.3831 43.3304 19.9955 46.134 19.2164L42.3857 5.72753ZM53.0445 11.7176C54.3499 16.3391 51.6466 21.104 47.0708 22.4027L43.2481 8.93473C40.4384 9.73225 38.7641 12.6647 39.5717 15.5235L53.0445 11.7176ZM47.0563 22.4068L35.4411 25.6766L31.6474 12.2004L43.2627 8.93063L47.0563 22.4068ZM35.4178 25.6832C34.6499 25.8965 33.8682 25.9999 33.0945 25.9999V11.9999C32.6195 11.9999 32.1399 12.0636 31.6707 12.1939L35.4178 25.6832ZM33.0945 25.9999C29.3189 25.9999 25.8369 23.518 24.759 19.6847L38.2364 15.8952C37.5702 13.5259 35.4193 11.9999 33.0945 11.9999V25.9999ZM24.758 19.6811C23.4656 15.0754 26.151 10.3069 30.7399 9.00682L34.556 22.4767C37.3756 21.6779 39.0352 18.7418 38.2374 15.8988L24.758 19.6811ZM32.648 22.7418H32.6446V8.74177H32.648V22.7418ZM30.7478 18.9624L42.363 15.6926L46.1567 29.1688L34.5415 32.4386L30.7478 18.9624ZM42.3739 15.6896C46.9565 14.4075 51.7451 17.0696 53.0454 21.6814L39.5708 25.4806C40.3731 28.3263 43.3193 29.9627 46.1459 29.1719L42.3739 15.6896ZM53.0454 21.6814C54.3486 26.3036 51.6455 31.0647 47.0708 32.3632L43.2481 18.8952C40.4396 19.6923 38.7654 22.6244 39.5708 25.4806L53.0454 21.6814ZM47.0563 32.3673L35.4411 35.6371L31.6474 22.1608L43.2627 18.8911L47.0563 32.3673ZM35.487 35.6239C34.6291 35.8718 33.8157 35.9604 33.0945 35.9604V21.9604C32.6719 21.9604 32.1607 22.0124 31.6015 22.1739L35.487 35.6239ZM33.0945 35.9604C29.3153 35.9604 25.8338 33.4744 24.7579 29.6395L38.2375 25.8579C37.5733 23.4902 35.4229 21.9604 33.0945 21.9604V35.9604ZM24.758 29.6399C23.4656 25.0341 26.151 20.2656 30.7399 18.9656L34.556 32.4355C37.3756 31.6367 39.0352 28.7006 38.2374 25.8575L24.758 29.6399ZM32.648 32.7005H32.6446V18.7005H32.648V32.7005ZM30.7478 28.9212L42.363 25.6514L46.1567 39.1276L34.5415 42.3974L30.7478 28.9212ZM42.3739 25.6483C46.9529 24.3673 51.742 27.0246 53.0445 31.6351L39.5717 35.441C40.3762 38.2888 43.3229 39.9204 46.1459 39.1306L42.3739 25.6483ZM53.0445 31.6351C54.3499 36.2566 51.6467 41.0215 47.0708 42.3203L43.2481 28.8523C40.4383 29.6498 38.7641 32.5823 39.5717 35.441L53.0445 31.6351ZM47.0563 42.3244L35.4411 45.5942L31.6474 32.118L43.2627 28.8482L47.0563 42.3244ZM35.487 45.5811C34.6291 45.8289 33.8157 45.9175 33.0945 45.9175V31.9175C32.6719 31.9175 32.1607 31.9695 31.6015 32.1311L35.487 45.5811ZM33.0945 45.9175C29.3153 45.9175 25.8338 43.4315 24.7579 39.5966L38.2375 35.815C37.5733 33.4474 35.4229 31.9175 33.0945 31.9175V45.9175ZM24.7571 39.5937C23.4669 34.9871 26.1522 30.2224 30.7399 28.9227L34.556 42.3926C37.3744 41.5941 39.0339 38.6585 38.2383 35.8179L24.7571 39.5937ZM35.7773 41.9192L35.7739 41.9209L29.5153 29.3977L29.5187 29.396L35.7773 41.9192Z" fill="black" mask="url(#path-1-inside-1_1_18)"/>
</g>
</g>
<defs>
<clipPath id="clip0_1_18">
<rect width="53.1134" height="53.1134" fill="white" transform="matrix(-1 0 0 1 53.1134 1.52588e-05)"/>
</clipPath>
</defs>
</svg>
