<svg width="75" height="67" viewBox="0 0 75 67" fill="none" xmlns="http://www.w3.org/2000/svg">
<g id="email-svgrepo-com 1" clip-path="url(#clip0_6_224)">
<g id="Group">
<path id="Vector" d="M74.3611 24.3122L38.457 0.284936C37.8898 -0.0950498 37.1105 -0.0950498 36.5433 0.284936L0.64004 24.3115C0.238101 24.5809 0.00116251 25.0036 0.00116251 25.4525C0.00116251 25.4527 0.00116251 25.4529 0.00116251 25.4531H0.000244141V65.5745C0.000244141 66.3618 0.714887 67 1.59606 67H73.4041C74.2854 67 74.9998 66.3618 74.9998 65.5744V25.453C74.9999 25.0041 74.7631 24.5816 74.3611 24.3122ZM37.5001 3.20709L70.7427 25.4531L59.6848 32.853V19.2882H15.3165V32.8527L4.25856 25.4525L37.5001 3.20709ZM56.4931 34.9885L37.5001 47.6984L18.5079 34.9883V22.1391H56.4931V34.9885ZM3.19172 64.1489V28.3009L36.5433 50.6204C37.3668 51.1349 38.1734 50.8105 38.457 50.6204L71.8085 28.3021V64.1489H3.19172Z" fill="black"/>
<path id="Vector_2" d="M46.9257 27.1369H28.3728V29.988H46.9257V27.1369Z" fill="black"/>
<path id="Vector_3" d="M46.9257 33.5427H28.3728V36.3937H46.9257V33.5427Z" fill="black"/>
</g>
</g>
<defs>
<clipPath id="clip0_6_224">
<rect width="75" height="67" fill="white"/>
</clipPath>
</defs>
</svg>
