<svg width="66" height="66" viewBox="0 0 66 66" fill="none" xmlns="http://www.w3.org/2000/svg">
<g id="svgviewer-output 1" style="mix-blend-mode:multiply" clip-path="url(#clip0_1_27)">
<g id="Group">
<g id="Group_2">
<g id="Group_3">
<path id="Vector" d="M9.21525 24.9653H34.3069C35.0661 24.9653 35.6819 24.3495 35.6819 23.5903C35.6819 22.8309 35.0663 22.2153 34.3069 22.2153H9.21525C8.45599 22.2153 7.84027 22.8309 7.84027 23.5903C7.84027 24.3497 8.45599 24.9653 9.21525 24.9653Z" fill="black"/>
<path id="Vector_2" d="M9.21525 31.2387H34.3069C35.0661 31.2387 35.6819 30.623 35.6819 29.8638C35.6819 29.1045 35.0663 28.4888 34.3069 28.4888H9.21525C8.45599 28.4888 7.84027 29.1045 7.84027 29.8638C7.84027 30.6232 8.45599 31.2387 9.21525 31.2387Z" fill="black"/>
<path id="Vector_3" d="M28.6261 36.1373C28.6261 35.378 28.0104 34.7623 27.2512 34.7623H9.21525C8.45599 34.7623 7.84027 35.378 7.84027 36.1373C7.84027 36.8965 8.45599 37.5122 9.21525 37.5122H27.2512C28.0106 37.5122 28.6261 36.8967 28.6261 36.1373Z" fill="black"/>
<g id="Vector_4">
<mask id="path-4-inside-1_1_27" fill="white">
<path d="M65.6466 26.4615L56.7923 16.6128C56.2845 16.048 55.4151 16.0021 54.8506 16.5094L48.2878 22.4082L48.2866 22.4093L43.5222 26.6932V15.75C43.5222 15.3257 43.3262 14.9252 42.9914 14.6646L28.8787 3.68676C28.8635 3.6748 28.8473 3.66435 28.8316 3.65307C28.8185 3.644 28.806 3.63424 28.7927 3.62544C28.7676 3.6088 28.7418 3.59381 28.7158 3.57883C28.6959 3.56741 28.6758 3.55683 28.6553 3.54638C28.6304 3.53386 28.6058 3.52135 28.5802 3.51035C28.5621 3.50238 28.5434 3.49578 28.525 3.48876C28.5049 3.48106 28.4849 3.4735 28.4647 3.46676C28.4454 3.46044 28.426 3.45494 28.4063 3.44944C28.3851 3.44339 28.3638 3.43803 28.3424 3.43308C28.3235 3.42881 28.3048 3.42455 28.2859 3.42111C28.2607 3.41658 28.2354 3.41286 28.21 3.40956C28.194 3.4075 28.1783 3.40516 28.1621 3.40365C28.12 3.3998 28.0778 3.39719 28.0353 3.39719H28.0293H1.37498C0.615579 3.39719 0 4.01291 0 4.77217V61.227C0 61.9863 0.615579 62.602 1.37498 62.602H42.1472C42.9064 62.602 43.5222 61.9863 43.5222 61.227V48.2023L58.9767 34.3029L58.9775 34.3021L65.5431 28.4036C65.8143 28.1599 65.9777 27.8182 65.9971 27.454C66.0166 27.0898 65.8905 26.7328 65.6466 26.4615ZM38.8584 14.9338L29.4531 16.2727L29.4203 7.59198L38.8584 14.9338ZM2.74996 59.852V6.14715H26.6647L26.709 17.8616C26.7105 18.2591 26.8841 18.6367 27.1848 18.8965C27.4363 19.1138 27.7559 19.2313 28.084 19.2313C28.1484 19.2313 28.2131 19.2268 28.2777 19.2176L40.7722 17.4391V29.1657L28.5914 40.1179C28.5717 40.1355 28.5545 40.1546 28.5361 40.1729C28.5255 40.1835 28.5145 40.1935 28.5042 40.2045C28.4669 40.2444 28.4321 40.2859 28.4005 40.3289C28.3686 40.3728 28.34 40.4186 28.3138 40.4651C28.3079 40.4755 28.3025 40.4862 28.2969 40.4968C28.2762 40.536 28.2574 40.5759 28.2408 40.6164C28.2379 40.6236 28.2339 40.6299 28.2311 40.6371L22.8111 54.4213C22.6205 54.9058 22.7202 55.4566 23.0685 55.8439C23.333 56.1381 23.7065 56.2995 24.0909 56.2995C24.2126 56.2995 24.3353 56.2834 24.456 56.2501L38.7302 52.3166L38.733 52.3156C38.7838 52.3014 38.8333 52.2838 38.8823 52.2639C38.8951 52.2587 38.9076 52.2529 38.92 52.2474C38.958 52.2306 38.9953 52.2121 39.0317 52.1919C39.0426 52.1859 39.0536 52.1803 39.0642 52.1741C39.1089 52.1477 39.1523 52.119 39.194 52.0875C39.2006 52.0824 39.2066 52.0768 39.2132 52.0717C39.2373 52.0527 39.2615 52.0341 39.2845 52.0134L40.7721 50.6755V59.852H2.74996ZM29.976 43.7148L32.617 46.6532L35.8559 50.2564L26.3768 52.8685L29.976 43.7148ZM38.4681 49.0491L33.2011 43.1892L31.4523 41.2437L49.1027 25.3739L51.4416 27.9765L56.1159 33.1774L38.4681 49.0491ZM58.161 31.339L54.3848 27.1374L51.1477 23.5354L55.6664 19.4738L62.682 27.2773L58.161 31.339Z"/>
</mask>
<path d="M65.6466 26.4615L56.7923 16.6128C56.2845 16.048 55.4151 16.0021 54.8506 16.5094L48.2878 22.4082L48.2866 22.4093L43.5222 26.6932V15.75C43.5222 15.3257 43.3262 14.9252 42.9914 14.6646L28.8787 3.68676C28.8635 3.6748 28.8473 3.66435 28.8316 3.65307C28.8185 3.644 28.806 3.63424 28.7927 3.62544C28.7676 3.6088 28.7418 3.59381 28.7158 3.57883C28.6959 3.56741 28.6758 3.55683 28.6553 3.54638C28.6304 3.53386 28.6058 3.52135 28.5802 3.51035C28.5621 3.50238 28.5434 3.49578 28.525 3.48876C28.5049 3.48106 28.4849 3.4735 28.4647 3.46676C28.4454 3.46044 28.426 3.45494 28.4063 3.44944C28.3851 3.44339 28.3638 3.43803 28.3424 3.43308C28.3235 3.42881 28.3048 3.42455 28.2859 3.42111C28.2607 3.41658 28.2354 3.41286 28.21 3.40956C28.194 3.4075 28.1783 3.40516 28.1621 3.40365C28.12 3.3998 28.0778 3.39719 28.0353 3.39719H28.0293H1.37498C0.615579 3.39719 0 4.01291 0 4.77217V61.227C0 61.9863 0.615579 62.602 1.37498 62.602H42.1472C42.9064 62.602 43.5222 61.9863 43.5222 61.227V48.2023L58.9767 34.3029L58.9775 34.3021L65.5431 28.4036C65.8143 28.1599 65.9777 27.8182 65.9971 27.454C66.0166 27.0898 65.8905 26.7328 65.6466 26.4615ZM38.8584 14.9338L29.4531 16.2727L29.4203 7.59198L38.8584 14.9338ZM2.74996 59.852V6.14715H26.6647L26.709 17.8616C26.7105 18.2591 26.8841 18.6367 27.1848 18.8965C27.4363 19.1138 27.7559 19.2313 28.084 19.2313C28.1484 19.2313 28.2131 19.2268 28.2777 19.2176L40.7722 17.4391V29.1657L28.5914 40.1179C28.5717 40.1355 28.5545 40.1546 28.5361 40.1729C28.5255 40.1835 28.5145 40.1935 28.5042 40.2045C28.4669 40.2444 28.4321 40.2859 28.4005 40.3289C28.3686 40.3728 28.34 40.4186 28.3138 40.4651C28.3079 40.4755 28.3025 40.4862 28.2969 40.4968C28.2762 40.536 28.2574 40.5759 28.2408 40.6164C28.2379 40.6236 28.2339 40.6299 28.2311 40.6371L22.8111 54.4213C22.6205 54.9058 22.7202 55.4566 23.0685 55.8439C23.333 56.1381 23.7065 56.2995 24.0909 56.2995C24.2126 56.2995 24.3353 56.2834 24.456 56.2501L38.7302 52.3166L38.733 52.3156C38.7838 52.3014 38.8333 52.2838 38.8823 52.2639C38.8951 52.2587 38.9076 52.2529 38.92 52.2474C38.958 52.2306 38.9953 52.2121 39.0317 52.1919C39.0426 52.1859 39.0536 52.1803 39.0642 52.1741C39.1089 52.1477 39.1523 52.119 39.194 52.0875C39.2006 52.0824 39.2066 52.0768 39.2132 52.0717C39.2373 52.0527 39.2615 52.0341 39.2845 52.0134L40.7721 50.6755V59.852H2.74996ZM29.976 43.7148L32.617 46.6532L35.8559 50.2564L26.3768 52.8685L29.976 43.7148ZM38.4681 49.0491L33.2011 43.1892L31.4523 41.2437L49.1027 25.3739L51.4416 27.9765L56.1159 33.1774L38.4681 49.0491ZM58.161 31.339L54.3848 27.1374L51.1477 23.5354L55.6664 19.4738L62.682 27.2773L58.161 31.339Z" fill="black"/>
<path d="M65.6466 26.4615L58.2101 33.1472L58.2105 33.1477L65.6466 26.4615ZM56.7923 16.6128L49.3555 23.2983L49.3557 23.2985L56.7923 16.6128ZM54.8506 16.5094L61.5355 23.9467L61.5358 23.9464L54.8506 16.5094ZM48.2878 22.4082L54.9443 29.8709L54.9585 29.8582L54.9727 29.8455L48.2878 22.4082ZM48.2866 22.4093L41.6301 14.9467L41.6153 14.9599L41.6005 14.9732L48.2866 22.4093ZM43.5222 26.6932H33.5222V49.1324L50.2083 34.1294L43.5222 26.6932ZM42.9914 14.6646L49.1331 6.77284L49.1313 6.77145L42.9914 14.6646ZM28.8787 3.68676L22.7099 11.5573L22.7244 11.5686L22.7389 11.5799L28.8787 3.68676ZM28.8316 3.65307L34.6709 -4.46497L34.6044 -4.51278L34.5372 -4.5595L28.8316 3.65307ZM28.7927 3.62544L23.2562 11.953L23.2708 11.9627L23.2854 11.9723L28.7927 3.62544ZM28.7158 3.57883L33.7117 -5.08379L33.6977 -5.09188L33.6836 -5.09992L28.7158 3.57883ZM28.6553 3.54638L33.199 -5.36174L33.1731 -5.37494L33.1472 -5.388L28.6553 3.54638ZM28.5802 3.51035L24.5575 12.6655L24.5933 12.6813L24.6291 12.6967L28.5802 3.51035ZM28.525 3.48876L24.9437 12.8255L24.9558 12.8301L24.9679 12.8347L28.525 3.48876ZM28.4647 3.46676L31.627 -6.02007L31.5967 -6.03018L31.5663 -6.0401L28.4647 3.46676ZM28.4063 3.44944L25.6591 13.0647L25.6858 13.0723L25.7125 13.0798L28.4063 3.44944ZM28.3424 3.43308L30.591 -6.31083L30.5702 -6.31563L30.5493 -6.32034L28.3424 3.43308ZM28.2859 3.42111L30.0684 -6.41873L30.0605 -6.42016L28.2859 3.42111ZM28.21 3.40956L29.4965 -6.50733L29.4924 -6.50786L28.21 3.40956ZM28.1621 3.40365L29.0903 -6.55318L29.0818 -6.55397L29.0733 -6.55474L28.1621 3.40365ZM43.5222 48.2023L36.8351 40.7671L33.5222 43.7467V48.2023H43.5222ZM58.9767 34.3029L65.6638 41.7382L65.852 41.5689L66.0314 41.3903L58.9767 34.3029ZM58.9775 34.3021L52.2944 26.8633L52.1041 27.0343L51.9228 27.2147L58.9775 34.3021ZM65.5431 28.4036L58.8611 20.9637L58.86 20.9647L65.5431 28.4036ZM65.9971 27.454L56.0114 26.9187L56.0112 26.9225L65.9971 27.454ZM38.8584 14.9338L40.2676 24.834L63.6018 21.5125L44.9984 7.04079L38.8584 14.9338ZM29.4531 16.2727L19.4531 16.3104L19.4964 27.7908L30.8623 26.1729L29.4531 16.2727ZM29.4203 7.59198L35.5604 -0.30106L19.343 -12.9166L19.4204 7.62968L29.4203 7.59198ZM2.74996 59.852H-7.25004V69.852H2.74996V59.852ZM2.74996 6.14715V-3.85285H-7.25004V6.14715H2.74996ZM26.6647 6.14715L36.6647 6.10936L36.627 -3.85285H26.6647V6.14715ZM26.709 17.8616L16.7091 17.8994L16.7091 17.8996L26.709 17.8616ZM27.1848 18.8965L20.6461 26.4627L20.6476 26.4639L27.1848 18.8965ZM28.2777 19.2176L26.8685 9.31739L26.8665 9.31768L28.2777 19.2176ZM40.7722 17.4391H50.7722V5.91479L39.3629 7.53885L40.7722 17.4391ZM40.7722 29.1657L47.4583 36.6019L50.7722 33.6222V29.1657H40.7722ZM28.5914 40.1179L35.2608 47.5689L35.2692 47.5615L35.2774 47.554L28.5914 40.1179ZM28.5361 40.1729L21.4916 33.0754L21.4783 33.0886L21.465 33.1018L28.5361 40.1729ZM28.5042 40.2045L21.2088 33.3651L21.2033 33.3709L21.1978 33.3768L28.5042 40.2045ZM28.4005 40.3289L20.3422 34.4075L20.3276 34.4273L20.3132 34.4472L28.4005 40.3289ZM28.3138 40.4651L37.0173 45.3894L37.0199 45.3848L28.3138 40.4651ZM28.2969 40.4968L19.4702 35.7969L19.4589 35.8181L19.4477 35.8394L28.2969 40.4968ZM28.2408 40.6164L18.9888 36.8216L18.9785 36.8467L18.9683 36.8718L28.2408 40.6164ZM28.2311 40.6371L37.5375 44.2964L37.5512 44.2617L37.5646 44.2268L28.2311 40.6371ZM22.8111 54.4213L32.1172 58.0814L32.1175 58.0806L22.8111 54.4213ZM23.0685 55.8439L15.6325 62.5302L15.6336 62.5315L23.0685 55.8439ZM24.456 56.2501L21.7993 46.6095L21.7988 46.6096L24.456 56.2501ZM38.7302 52.3166L41.3869 61.9572L41.7176 61.8661L42.0413 61.7525L38.7302 52.3166ZM38.733 52.3156L36.0512 42.6819L35.7333 42.7704L35.4219 42.8797L38.733 52.3156ZM38.8823 52.2639L42.6544 61.5252L42.6647 61.521L38.8823 52.2639ZM38.92 52.2474L34.8893 43.0957L34.8739 43.1025L34.8586 43.1093L38.92 52.2474ZM39.0317 52.1919L34.251 43.4087L34.2159 43.4278L34.1809 43.4472L39.0317 52.1919ZM39.0642 52.1741L44.1099 60.8078L44.1303 60.7959L44.1506 60.7839L39.0642 52.1741ZM39.194 52.0875L45.2234 60.0653L45.2614 60.0366L45.2991 60.0076L39.194 52.0875ZM39.2132 52.0717L45.3183 59.9918L45.362 59.9581L45.4053 59.924L39.2132 52.0717ZM39.2845 52.0134L32.5975 44.578L32.5876 44.587L32.5777 44.5959L39.2845 52.0134ZM40.7721 50.6755H50.7721V28.2328L34.0851 43.2402L40.7721 50.6755ZM40.7721 59.852V69.852H50.7721V59.852H40.7721ZM29.976 43.7148L37.4132 37.03L26.5926 24.9914L20.6695 40.0556L29.976 43.7148ZM32.617 46.6532L25.1798 53.338L25.18 53.3382L32.617 46.6532ZM35.8559 50.2564L38.5125 59.8971L54.1056 55.6003L43.293 43.5714L35.8559 50.2564ZM26.3768 52.8685L17.0704 49.2093L9.75185 67.8223L29.0334 62.5092L26.3768 52.8685ZM38.4681 49.0491L31.0308 55.7339L37.7176 63.1734L45.1552 56.4844L38.4681 49.0491ZM33.2011 43.1892L40.6384 36.5044L40.638 36.5039L33.2011 43.1892ZM31.4523 41.2437L24.7663 33.8075L17.3308 40.4929L24.0154 47.929L31.4523 41.2437ZM49.1027 25.3739L56.5403 18.6895L49.8545 11.2502L42.4166 17.9377L49.1027 25.3739ZM51.4416 27.9765L44.004 34.6609L44.0041 34.661L51.4416 27.9765ZM56.1159 33.1774L62.8029 40.6127L70.2357 33.9279L63.5535 26.4929L56.1159 33.1774ZM58.161 31.339L50.7235 38.0235L57.4068 45.4597L64.8442 38.7778L58.161 31.339ZM54.3848 27.1374L46.9471 33.8218L46.9472 33.8219L54.3848 27.1374ZM51.1477 23.5354L44.4627 16.0983L37.0261 22.7827L43.71 30.2199L51.1477 23.5354ZM55.6664 19.4738L63.103 12.7881L56.418 5.35224L48.9815 12.0366L55.6664 19.4738ZM62.682 27.2773L69.3651 34.7161L76.8064 28.0307L70.1185 20.5917L62.682 27.2773ZM73.0831 19.7759L64.2288 9.92715L49.3557 23.2985L58.2101 33.1472L73.0831 19.7759ZM64.229 9.92738C60.0278 5.25411 52.8358 4.8743 48.1655 9.07244L61.5358 23.9464C57.9944 27.1298 52.5411 26.8419 49.3555 23.2983L64.229 9.92738ZM48.1658 9.07215L41.603 14.971L54.9727 29.8455L61.5355 23.9467L48.1658 9.07215ZM41.6314 14.9456L41.6301 14.9467L54.9431 29.872L54.9443 29.8709L41.6314 14.9456ZM41.6005 14.9732L36.8361 19.2571L50.2083 34.1294L54.9727 29.8455L41.6005 14.9732ZM53.5222 26.6932V15.75H33.5222V26.6932H53.5222ZM53.5222 15.75C53.5222 12.2393 51.9012 8.92711 49.1331 6.77284L36.8498 22.5564C34.7512 20.9232 33.5222 18.4121 33.5222 15.75H53.5222ZM49.1313 6.77145L35.0186 -4.2064L22.7389 11.5799L36.8516 22.5578L49.1313 6.77145ZM35.0476 -4.1838C34.8126 -4.36794 34.6189 -4.50253 34.5695 -4.53697C34.5545 -4.54738 34.5421 -4.55595 34.5395 -4.55778C34.5334 -4.56195 34.5402 -4.55728 34.5465 -4.55289C34.5602 -4.54337 34.6086 -4.50978 34.6709 -4.46497L22.9923 11.7711C23.0624 11.8216 23.1187 11.8607 23.1403 11.8757C23.1464 11.8799 23.1514 11.8834 23.1544 11.8855C23.156 11.8865 23.1573 11.8874 23.158 11.888C23.1593 11.8889 23.1587 11.8885 23.1593 11.8888C23.1606 11.8898 23.1522 11.8839 23.1412 11.8763C23.1196 11.8613 23.065 11.8232 22.9953 11.7726C22.9242 11.721 22.8256 11.648 22.7099 11.5573L35.0476 -4.1838ZM34.5372 -4.5595C34.6071 -4.5109 34.6609 -4.4721 34.6845 -4.45503C34.6966 -4.44627 34.7057 -4.43962 34.7065 -4.4391C34.7114 -4.43553 34.7007 -4.44328 34.6943 -4.44798C34.678 -4.45979 34.6293 -4.49524 34.5671 -4.53912C34.503 -4.5843 34.4114 -4.64787 34.2999 -4.72145L23.2854 11.9723C23.1806 11.9031 23.0956 11.8441 23.038 11.8035C22.9823 11.7642 22.94 11.7334 22.9302 11.7263C22.9269 11.7239 22.9195 11.7185 22.9276 11.7244C22.9316 11.7273 22.9439 11.7363 22.9592 11.7474C22.9892 11.7691 23.0495 11.8125 23.126 11.8656L34.5372 -4.5595ZM34.3291 -4.7021C34.0019 -4.91967 33.7121 -5.0836 33.7117 -5.08379L23.7199 12.2414C23.7356 12.2505 23.6806 12.219 23.6114 12.1775C23.5361 12.1323 23.4101 12.0552 23.2562 11.953L34.3291 -4.7021ZM33.6836 -5.09992C33.4705 -5.22193 33.2943 -5.31317 33.199 -5.36174L24.1116 12.4545C24.0573 12.4268 23.9213 12.3568 23.748 12.2576L33.6836 -5.09992ZM33.1472 -5.388C33.1653 -5.37892 33.0804 -5.42183 32.9956 -5.46315C32.8975 -5.51092 32.7347 -5.58852 32.5313 -5.67598L24.6291 12.6967C24.4514 12.6202 24.3137 12.5544 24.2405 12.5187C24.1805 12.4896 24.1205 12.4592 24.1634 12.4808L33.1472 -5.388ZM32.603 -5.64484C32.3754 -5.74484 32.1917 -5.81555 32.1135 -5.84535C32.0743 -5.86029 32.0403 -5.87297 32.0397 -5.8732C32.0293 -5.87708 32.0535 -5.86806 32.082 -5.85722L24.9679 12.8347C24.9889 12.8427 25.0062 12.8493 25.0175 12.8535C25.0279 12.8574 25.0373 12.8609 25.038 12.8612C25.0466 12.8644 25.0218 12.8552 24.9919 12.8437C24.9322 12.821 24.7669 12.7576 24.5575 12.6655L32.603 -5.64484ZM32.1062 -5.84799C32.0876 -5.8551 31.8811 -5.93539 31.627 -6.02007L25.3025 12.9536C25.1856 12.9146 25.0924 12.8809 25.0349 12.8597C25.0056 12.8489 24.9822 12.8401 24.9675 12.8346C24.96 12.8317 24.9541 12.8295 24.9502 12.828C24.9464 12.8265 24.9439 12.8256 24.9437 12.8255L32.1062 -5.84799ZM31.5663 -6.0401C31.3235 -6.11929 31.1207 -6.17514 31.1001 -6.1809L25.7125 13.0798C25.7122 13.0797 25.7097 13.079 25.7058 13.0779C25.7019 13.0768 25.6959 13.0751 25.6884 13.073C25.6736 13.0688 25.6503 13.0621 25.6214 13.0536C25.5641 13.0368 25.474 13.0098 25.3632 12.9736L31.5663 -6.0401ZM31.1535 -6.1658C30.9308 -6.22943 30.7381 -6.27687 30.591 -6.31083L26.0938 13.177C25.9895 13.1529 25.8395 13.1162 25.6591 13.0647L31.1535 -6.1658ZM30.5493 -6.32034C30.5472 -6.32084 30.5493 -6.32035 30.546 -6.32111C30.5443 -6.32148 30.5419 -6.32203 30.5391 -6.32267C30.5335 -6.32392 30.5249 -6.32587 30.5146 -6.32818C30.4944 -6.3327 30.4621 -6.33988 30.4229 -6.34834C30.3458 -6.36498 30.2214 -6.39101 30.0684 -6.41872L26.5033 13.261C26.3693 13.2367 26.2637 13.2145 26.2054 13.2019C26.1551 13.1911 26.1098 13.1807 26.1354 13.1865L30.5493 -6.32034ZM30.0605 -6.42016C29.8248 -6.46267 29.6277 -6.49031 29.4965 -6.50733L26.9234 13.3265C26.8431 13.316 26.6966 13.2958 26.5112 13.2624L30.0605 -6.42016ZM29.4924 -6.50786C29.5165 -6.50475 29.5361 -6.5021 29.5295 -6.50298C29.5291 -6.50304 29.5215 -6.50406 29.5133 -6.50514C29.5044 -6.50633 29.4906 -6.50816 29.474 -6.51032C29.4123 -6.51833 29.2702 -6.5364 29.0903 -6.55318L27.2339 13.3605C27.0702 13.3452 26.9441 13.3291 26.8983 13.3231C26.8764 13.3203 26.8576 13.3177 26.8666 13.3189C26.8679 13.3191 26.8954 13.3228 26.9275 13.327L29.4924 -6.50786ZM29.0733 -6.55474C28.8443 -6.5757 28.4797 -6.60281 28.0353 -6.60281V13.3972C27.6759 13.3972 27.3957 13.3753 27.2509 13.362L29.0733 -6.55474ZM28.0353 -6.60281H28.0293V13.3972H28.0353V-6.60281ZM28.0293 -6.60281H1.37498V13.3972H28.0293V-6.60281ZM1.37498 -6.60281C-4.90792 -6.60281 -10 -1.50929 -10 4.77217H10C10 9.5351 6.13908 13.3972 1.37498 13.3972V-6.60281ZM-10 4.77217V61.227H10V4.77217H-10ZM-10 61.227C-10 67.5085 -4.90791 72.602 1.37498 72.602V52.602C6.13907 52.602 10 56.4641 10 61.227H-10ZM1.37498 72.602H42.1472V52.602H1.37498V72.602ZM42.1472 72.602C48.4293 72.602 53.5222 67.5092 53.5222 61.227H33.5222C33.5222 56.4634 37.3836 52.602 42.1472 52.602V72.602ZM53.5222 61.227V48.2023H33.5222V61.227H53.5222ZM50.2092 55.6376L65.6638 41.7382L52.2896 26.8677L36.8351 40.7671L50.2092 55.6376ZM66.0314 41.3903L66.0322 41.3895L51.9228 27.2147L51.922 27.2156L66.0314 41.3903ZM65.6606 41.7409L72.2262 35.8424L58.86 20.9647L52.2944 26.8633L65.6606 41.7409ZM72.225 35.8434C74.4719 33.8254 75.8226 30.998 75.9829 27.9855L56.0112 26.9225C56.1328 24.6385 57.1568 22.4944 58.8611 20.9637L72.225 35.8434ZM75.9827 27.9893C76.1444 24.9736 75.1001 22.0191 73.0827 19.7754L58.2105 33.1477C56.6809 31.4465 55.8888 29.206 56.0114 26.9187L75.9827 27.9893ZM37.4491 5.03364L28.0438 6.37246L30.8623 26.1729L40.2676 24.834L37.4491 5.03364ZM39.453 16.235L39.4203 7.55429L19.4204 7.62968L19.4531 16.3104L39.453 16.235ZM23.2803 15.485L32.7183 22.8269L44.9984 7.04079L35.5604 -0.30106L23.2803 15.485ZM12.75 59.852V6.14715H-7.25004V59.852H12.75ZM2.74996 16.1472H26.6647V-3.85285H2.74996V16.1472ZM16.6648 6.18495L16.7091 17.8994L36.709 17.8238L36.6647 6.10936L16.6648 6.18495ZM16.7091 17.8996C16.7216 21.1873 18.1562 24.3109 20.6461 26.4627L33.7234 11.3304C35.6119 12.9624 36.6995 15.3308 36.709 17.8235L16.7091 17.8996ZM20.6476 26.4639C22.725 28.2585 25.368 29.2313 28.084 29.2313V9.23134C30.1439 9.23134 32.1475 9.96909 33.7219 11.3291L20.6476 26.4639ZM28.084 29.2313C28.6182 29.2313 29.1546 29.1937 29.689 29.1175L26.8665 9.31768C27.2717 9.25992 27.6785 9.23134 28.084 9.23134V29.2313ZM29.687 29.1178L42.1815 27.3393L39.3629 7.53885L26.8685 9.31739L29.687 29.1178ZM30.7722 17.4391V29.1657H50.7722V17.4391H30.7722ZM34.0861 21.7296L21.9053 32.6817L35.2774 47.554L47.4583 36.6019L34.0861 21.7296ZM21.9219 32.6668C21.6627 32.8988 21.4707 33.0951 21.4127 33.1545C21.396 33.1715 21.3825 33.1854 21.378 33.1901C21.3691 33.1992 21.3762 33.1919 21.3795 33.1886C21.3891 33.1786 21.433 33.1335 21.4916 33.0754L35.5806 47.2704C35.6484 47.2031 35.7013 47.1487 35.72 47.1295C35.7278 47.1215 35.7394 47.1096 35.735 47.114C35.735 47.1141 35.726 47.1233 35.7139 47.1357C35.6902 47.16 35.6349 47.2163 35.5622 47.2873C35.488 47.3597 35.3858 47.4571 35.2608 47.5689L21.9219 32.6668ZM21.465 33.1018C21.514 33.0529 21.5522 33.0157 21.5649 33.0034C21.5711 32.9974 21.5766 32.9921 21.5735 32.9951C21.5727 32.9958 21.5642 33.0041 21.5541 33.0139C21.5341 33.0333 21.489 33.0771 21.4331 33.1333C21.3759 33.1906 21.2985 33.2695 21.2088 33.3651L35.7996 47.0439C35.7151 47.134 35.6429 47.2075 35.591 47.2595C35.5403 47.3103 35.5006 47.349 35.486 47.3632C35.4786 47.3703 35.4727 47.376 35.4747 47.3742C35.4747 47.3741 35.4771 47.3718 35.4795 47.3695C35.4822 47.3669 35.4863 47.3629 35.4913 47.3581C35.5093 47.3405 35.5529 47.2982 35.6072 47.2439L21.465 33.1018ZM21.1978 33.3768C20.9172 33.6771 20.6271 34.0198 20.3422 34.4075L36.4588 46.2504C36.2372 46.552 36.0166 46.8116 35.8106 47.0322L21.1978 33.3768ZM20.3132 34.4472C20.0091 34.8652 19.777 35.2456 19.6077 35.5453L37.0199 45.3848C36.903 45.5915 36.7281 45.8803 36.4879 46.2106L20.3132 34.4472ZM19.6103 35.5407C19.5281 35.686 19.4669 35.8026 19.4487 35.8374C19.4433 35.8476 19.439 35.856 19.4373 35.8591C19.434 35.8655 19.4367 35.8603 19.4371 35.8596C19.4395 35.855 19.4527 35.8297 19.4702 35.7969L37.1236 45.1967C37.1439 45.1586 37.1598 45.1281 37.165 45.1181C37.1668 45.1147 37.1709 45.1069 37.1689 45.1106C37.1687 45.1111 37.1657 45.1168 37.1617 45.1244C37.154 45.1391 37.1364 45.1726 37.1134 45.2154C37.0899 45.2589 37.0573 45.3187 37.0173 45.3894L19.6103 35.5407ZM19.4477 35.8394C19.2944 36.1306 19.1377 36.4585 18.9888 36.8216L37.4927 44.4113C37.3771 44.6932 37.2581 44.9414 37.146 45.1543L19.4477 35.8394ZM18.9683 36.8718C19.0733 36.6119 19.1689 36.4072 19.227 36.2863C19.2565 36.2251 19.2806 36.1767 19.2938 36.1503C19.3005 36.1368 19.3058 36.1263 19.3083 36.1215C19.3091 36.1198 19.3132 36.1118 19.3096 36.1188C19.3078 36.1224 19.2922 36.1532 19.2731 36.1919C19.2529 36.2325 19.2226 36.2945 19.1868 36.3705C19.1159 36.521 19.0102 36.7548 18.8977 37.0473L37.5646 44.2268C37.4535 44.5158 37.3493 44.7461 37.28 44.8932C37.245 44.9675 37.2155 45.0277 37.1962 45.0667C37.1779 45.1037 37.1632 45.1327 37.1622 45.1347C37.159 45.1409 37.1635 45.132 37.1648 45.1295C37.1676 45.1238 37.1734 45.1124 37.1806 45.0981C37.1946 45.07 37.2195 45.0199 37.2498 44.957C37.3096 44.8327 37.4068 44.6245 37.5132 44.3611L18.9683 36.8718ZM18.9247 36.9777L13.5047 50.7619L32.1175 58.0806L37.5375 44.2964L18.9247 36.9777ZM13.505 50.7611C11.9271 54.7729 12.7537 59.3286 15.6325 62.5302L30.5044 49.1577C32.6867 51.5846 33.3139 55.0387 32.1172 58.0814L13.505 50.7611ZM15.6336 62.5315C17.8236 64.9661 20.9141 66.2995 24.0909 66.2995V46.2995C26.4988 46.2995 28.8425 47.31 30.5033 49.1564L15.6336 62.5315ZM24.0909 66.2995C25.096 66.2995 26.113 66.1663 27.1132 65.8906L21.7988 46.6096C22.5575 46.4005 23.3292 46.2995 24.0909 46.2995V66.2995ZM27.1126 65.8908L41.3869 61.9572L36.0735 42.6759L21.7993 46.6095L27.1126 65.8908ZM42.0413 61.7525L42.044 61.7515L35.4219 42.8797L35.4191 42.8806L42.0413 61.7525ZM41.4148 61.9493C41.912 61.8109 42.331 61.6569 42.6544 61.5252L35.1101 43.0026C35.3357 42.9108 35.6557 42.792 36.0512 42.6819L41.4148 61.9493ZM42.6647 61.521C42.8021 61.4648 42.9098 61.4173 42.9572 61.3963C42.981 61.3857 43.0014 61.3766 43.0029 61.3759C43.0102 61.3726 42.9968 61.3787 42.9813 61.3855L34.8586 43.1093C34.8464 43.1147 34.8364 43.1192 34.83 43.1221C34.8241 43.1247 34.8186 43.1272 34.8184 43.1273C34.8137 43.1293 34.8278 43.123 34.8454 43.1152C34.8802 43.0998 34.9753 43.0577 35.0998 43.0069L42.6647 61.521ZM42.9507 61.3991C43.2773 61.2552 43.588 61.1 43.8826 60.9365L34.1809 43.4472C34.4027 43.3242 34.6388 43.206 34.8893 43.0957L42.9507 61.3991ZM43.8125 60.9751C43.7813 60.9921 43.7572 61.0049 43.7552 61.006C43.7434 61.0123 43.7681 60.9991 43.7857 60.9896C43.8267 60.9676 43.9529 60.8996 44.1099 60.8078L34.0185 43.5404C34.1649 43.4548 34.2803 43.3928 34.3104 43.3766C34.3226 43.37 34.3418 43.3598 34.3246 43.3689C34.3172 43.3729 34.2877 43.3887 34.251 43.4087L43.8125 60.9751ZM44.1506 60.7839C44.4869 60.5853 44.8493 60.3481 45.2234 60.0653L33.1645 44.1097C33.4554 43.8899 33.7309 43.7102 33.9778 43.5643L44.1506 60.7839ZM45.2991 60.0076C45.3606 59.9602 45.4148 59.9172 45.4606 59.8805C45.5062 59.8438 45.5452 59.8119 45.5755 59.7868C45.6055 59.7619 45.6298 59.7415 45.6448 59.7288C45.6525 59.7224 45.6588 59.7171 45.6627 59.7137C45.6647 59.712 45.6664 59.7106 45.6675 59.7097C45.6685 59.7089 45.6694 59.7081 45.6694 59.708C45.6703 59.7073 45.6679 59.7093 45.6651 59.7117C45.6619 59.7144 45.6564 59.719 45.6496 59.7248C45.6361 59.7361 45.6134 59.7552 45.585 59.7788C45.5563 59.8025 45.5189 59.8332 45.4749 59.8685C45.4308 59.904 45.3782 59.9456 45.3183 59.9918L33.1082 44.1516C33.0467 44.199 32.9924 44.2419 32.9467 44.2787C32.901 44.3154 32.8621 44.3473 32.8318 44.3724C32.8017 44.3973 32.7774 44.4177 32.7624 44.4303C32.7547 44.4368 32.7485 44.4421 32.7445 44.4454C32.7425 44.4471 32.7409 44.4485 32.7398 44.4495C32.7388 44.4503 32.7379 44.4511 32.7378 44.4511C32.7369 44.4519 32.7393 44.4499 32.7422 44.4474C32.7453 44.4448 32.7508 44.4402 32.7577 44.4344C32.7711 44.423 32.7938 44.404 32.8223 44.3804C32.851 44.3567 32.8883 44.326 32.9323 44.2907C32.9764 44.2552 33.0291 44.2135 33.0889 44.1674L45.2991 60.0076ZM45.4053 59.924C45.4004 59.9279 45.397 59.9305 45.3998 59.9283C45.4005 59.9278 45.409 59.9211 45.4175 59.9144C45.435 59.9006 45.4742 59.8697 45.5223 59.831C45.6171 59.7546 45.788 59.6147 45.9913 59.4308L32.5777 44.5959C32.758 44.4328 32.9053 44.3126 32.9763 44.2554C33.0124 44.2263 33.0396 44.2049 33.0451 44.2006C33.0476 44.1986 33.0501 44.1967 33.0448 44.2008C33.0415 44.2034 33.0321 44.2108 33.0212 44.2194L45.4053 59.924ZM45.9714 59.4487L47.459 58.1109L34.0851 43.2402L32.5975 44.578L45.9714 59.4487ZM30.7721 50.6755V59.852H50.7721V50.6755H30.7721ZM40.7721 49.852H2.74996V69.852H40.7721V49.852ZM22.5387 50.3997L25.1798 53.338L40.0543 39.9683L37.4132 37.03L22.5387 50.3997ZM25.18 53.3382L28.4189 56.9415L43.293 43.5714L40.0541 39.9681L25.18 53.3382ZM33.1994 40.6158L23.7203 43.2278L29.0334 62.5092L38.5125 59.8971L33.1994 40.6158ZM35.6833 56.5277L39.2824 47.374L20.6695 40.0556L17.0704 49.2093L35.6833 56.5277ZM45.9054 42.3643L40.6384 36.5044L25.7638 49.874L31.0308 55.7339L45.9054 42.3643ZM40.638 36.5039L38.8892 34.5584L24.0154 47.929L25.7643 49.8744L40.638 36.5039ZM38.1383 48.6799L55.7887 32.8101L42.4166 17.9377L24.7663 33.8075L38.1383 48.6799ZM41.665 32.0583L44.004 34.6609L58.8793 21.2921L56.5403 18.6895L41.665 32.0583ZM44.0041 34.661L48.6783 39.8619L63.5535 26.4929L58.8792 21.292L44.0041 34.661ZM49.4289 25.7421L31.7811 41.6138L45.1552 56.4844L62.8029 40.6127L49.4289 25.7421ZM65.5986 24.6545L61.8224 20.4528L46.9472 33.8219L50.7235 38.0235L65.5986 24.6545ZM61.8224 20.4529L58.5853 16.851L43.71 30.2199L46.9471 33.8218L61.8224 20.4529ZM57.8326 30.9726L62.3514 26.9109L48.9815 12.0366L44.4627 16.0983L57.8326 30.9726ZM48.2299 26.1594L55.2454 33.9629L70.1185 20.5917L63.103 12.7881L48.2299 26.1594ZM55.9988 19.8385L51.4779 23.9002L64.8442 38.7778L69.3651 34.7161L55.9988 19.8385Z" fill="black" mask="url(#path-4-inside-1_1_27)"/>
</g>
</g>
</g>
</g>
</g>
<defs>
<clipPath id="clip0_1_27">
<rect width="65.999" height="65.999" fill="white"/>
</clipPath>
</defs>
</svg>
