<svg width="67" height="67" viewBox="0 0 67 67" fill="none" xmlns="http://www.w3.org/2000/svg">
<g id="phone-call-svgrepo-com (1) 1" clip-path="url(#clip0_6_221)">
<g id="Group">
<path id="Vector" d="M25.6961 41.4094C31.7055 47.3747 38.6613 53.0733 41.3921 50.3217C45.3021 46.3831 47.7088 42.9564 56.3853 49.8759C65.0617 56.7988 58.4353 61.4577 54.6483 65.2742C50.2783 69.6773 33.9104 65.5828 17.6863 49.4818C1.46326 33.3775 -2.75628 17.0416 1.61698 12.6363C5.40507 8.81966 10.0144 2.16031 16.9977 10.7862C23.9843 19.4078 20.576 21.8408 16.666 25.7805C13.9365 28.531 19.6857 35.4429 25.6961 41.4094ZM34.41 12.9504C34.41 12.9504 32.5972 12.6672 31.3278 13.9375C30.0212 15.2441 29.9642 17.495 31.3411 18.8707C32.1547 19.6844 33.3021 19.8578 33.3021 19.8578C35.5388 20.2773 38.9097 20.9876 42.4969 24.5737C46.083 28.1596 46.7933 31.5305 47.2128 33.7683C47.2128 33.7683 47.3862 34.9157 48.1999 35.7293C49.5758 37.1052 51.8265 37.0492 53.1331 35.7426C54.4024 34.4734 54.1202 32.6606 54.1202 32.6606C53.4099 28.1302 51.2139 23.3979 47.4432 19.6274C43.6716 15.8569 38.9391 13.6618 34.41 12.9504ZM51.4146 15.6558C57.9895 22.2307 60.7926 29.6928 59.8801 35.7393C59.8801 35.7393 59.5617 37.6542 60.8123 38.9048C62.22 40.3125 64.451 40.2313 65.7686 38.9148C66.6152 38.0682 66.7996 36.6902 66.7996 36.6902C67.554 31.4649 66.6054 20.9527 56.3611 10.7095C46.1167 0.466158 35.6057 -0.48248 30.3802 0.270779C30.3802 0.270779 29.0033 0.45421 28.1556 1.30177C26.838 2.61936 26.7579 4.85056 28.1654 6.2581C29.4162 7.50885 31.3309 7.19027 31.3309 7.19027C37.3778 6.2778 44.8397 9.08108 51.4146 15.6558Z" fill="black"/>
</g>
</g>
<defs>
<clipPath id="clip0_6_221">
<rect width="67" height="67" fill="white"/>
</clipPath>
</defs>
</svg>
