<svg width="71" height="71" viewBox="0 0 71 71" fill="none" xmlns="http://www.w3.org/2000/svg">
<g id="student-thin 1" style="mix-blend-mode:multiply" clip-path="url(#clip0_1_21)">
<path id="Vector" d="M8.875 17.75V39.9375" stroke="black" stroke-width="5" stroke-linecap="round" stroke-linejoin="round"/>
<path id="Vector_2" d="M15.032 59.9063C17.2521 56.5012 20.2865 53.7038 23.8605 51.7674C27.4345 49.8311 31.4352 48.817 35.5 48.817C39.5649 48.817 43.5655 49.8311 47.1395 51.7674C50.7135 53.7038 53.748 56.5012 55.968 59.9063" stroke="black" stroke-width="5" stroke-linecap="round" stroke-linejoin="round"/>
<path id="Vector_3" d="M62.125 17.75L35.5 26.625L8.875 17.75L35.5 8.875L62.125 17.75Z" stroke="black" stroke-width="5" stroke-linecap="round" stroke-linejoin="round"/>
<path id="Vector_4" d="M46.9543 22.7977C48.9896 25.0202 50.3343 27.7869 50.8244 30.7605C51.3146 33.734 50.9291 36.7859 49.7149 39.5442C48.5007 42.3024 46.5103 44.6478 43.9863 46.2945C41.4622 47.9411 38.5137 48.8179 35.5 48.8179C32.4863 48.8179 29.5378 47.9411 27.0138 46.2945C24.4897 44.6478 22.4993 42.3024 21.2851 39.5442C20.0709 36.7859 19.6854 33.734 20.1756 30.7605C20.6658 27.7869 22.0104 25.0202 24.0457 22.7977" stroke="black" stroke-width="5" stroke-linecap="round" stroke-linejoin="round"/>
</g>
<defs>
<clipPath id="clip0_1_21">
<rect width="71" height="71" fill="white"/>
</clipPath>
</defs>
</svg>
