<svg width="63" height="63" viewBox="0 0 63 63" fill="none" xmlns="http://www.w3.org/2000/svg">
<g id="svgviewer-output (1) 1" style="mix-blend-mode:multiply" clip-path="url(#clip0_1_38)">
<g id="XMLID_129_">
<path id="XMLID_134_" d="M60.9847 0.728142H27.4946C26.3804 0.728142 25.4792 1.63211 25.4792 2.74464V16.9677L26.9364 15.264C27.6283 14.4541 28.5405 13.9546 29.51 13.7459V4.76036H58.9691V31.0905H29.5101V26.6829L28.6026 27.7442C27.8094 28.6697 26.6898 29.244 25.4792 29.3571V33.1064C25.4792 34.2189 26.3804 35.1217 27.4946 35.1217H38.3712L32.8454 60.2091C32.5978 61.3341 33.3088 62.4467 34.4347 62.6949C35.5505 62.94 36.6724 62.2313 36.9176 61.1075L42.6408 35.1218H45.9678L51.6909 61.1075C51.9054 62.0803 52.7683 62.7442 53.7253 62.7431C53.8739 62.7431 54.0258 62.728 54.1762 62.6949C55.3021 62.4467 56.0129 61.3342 55.7632 60.2091L50.2379 35.1217H60.9848C62.0979 35.1217 63.0001 34.2189 63.0001 33.1064V2.74464C63 1.63211 62.0978 0.728142 60.9847 0.728142Z" fill="black"/>
<path id="XMLID_132_" d="M44.9757 12.5022C44.8168 12.1018 44.3665 11.9052 43.9664 12.0637L32.0927 16.2547C31.003 15.4109 29.4307 15.5617 28.522 16.6186L24.7543 21.0185L21.4135 18.1548C21.4356 18.3913 21.4856 18.6211 21.4856 18.8637V25.0804L23.3443 26.673C24.4473 27.6177 26.0973 27.4717 27.0195 26.39L31.5049 21.145L35.1223 19.0288L44.6424 13.4588C44.9715 13.2691 45.1174 12.8635 44.9757 12.5022Z" fill="black"/>
<path id="XMLID_131_" d="M14.1515 13.617H11.914C10.2008 13.617 8.69433 14.4497 7.7368 15.7189L0.868567 22.0423C-0.201602 22.9956 -0.298668 24.6468 0.665038 25.7235L6.26858 31.978C7.22392 33.0477 8.87764 33.1423 9.94768 32.1809C11.0206 31.2194 11.1112 29.5725 10.1498 28.5009L6.28738 24.1878L11.7735 19.2786L8.57834 23.6197L11.7039 27.1093C13.431 29.0393 13.2681 32.0047 11.339 33.733C10.022 34.9138 8.22457 35.1908 6.66637 34.6463C6.66637 34.6463 6.69058 46.7034 6.69058 59.6159C6.69058 61.343 8.09043 62.7429 9.81766 62.7429C11.5431 62.7429 12.9447 61.343 12.9447 59.6159C12.9447 46.7074 12.9447 54.0737 12.9447 40.9789H15.0306C15.0306 54.0642 15.0306 46.7034 15.0306 59.6159C15.0306 60.5175 14.7792 61.3525 14.3783 62.0915C14.9031 62.4951 15.556 62.7429 16.2676 62.7429C17.9958 62.7429 19.3956 61.343 19.3956 59.6159C19.3956 46.7074 19.3996 52.1188 19.3996 18.8636C19.3999 15.9659 17.0509 13.617 14.1515 13.617Z" fill="black"/>
<path id="XMLID_130_" d="M10.2462 11.7403C11.0824 12.1749 12.0211 12.4446 13.0295 12.4446C14.0404 12.4446 14.9791 12.1749 15.8177 11.7396C17.775 10.7255 19.1241 8.70671 19.1241 6.35048C19.1241 2.9846 16.3955 0.256844 13.0293 0.256844C9.66371 0.256844 6.9357 2.9846 6.9357 6.35048C6.93583 8.70799 8.28638 10.7276 10.2462 11.7403Z" fill="black"/>
</g>
</g>
<defs>
<clipPath id="clip0_1_38">
<rect width="63" height="63" fill="white"/>
</clipPath>
</defs>
</svg>
